<svg width="134" height="134" viewBox="0 0 134 134" fill="none" xmlns="http://www.w3.org/2000/svg">
<path fill-rule="evenodd" clip-rule="evenodd" d="M19.8188 106.587L27.6913 114.459L37.6855 104.409L29.813 96.5365L19.8188 106.587ZM61.4151 111.667H72.5818V128.417H61.4151V111.667ZM5.58252 61.4167H22.3325V72.5834H5.58252V61.4167ZM72.5818 22.6126V44.7227L78.1651 47.961C85.0885 51.981 89.3318 59.351 89.3318 67.2793C89.3318 79.6185 79.3376 89.6127 66.9985 89.6127C54.6593 89.6127 44.6651 79.6185 44.6651 67.2793C44.6651 59.351 48.9643 51.981 55.8318 47.961L61.4151 44.7227V22.6126H72.5818ZM83.7499 11.4453H50.2499V38.3011C40.2557 44.1078 33.4999 54.8837 33.4999 67.2787C33.4999 85.7595 48.5191 100.779 66.9999 100.779C85.4807 100.779 100.5 85.7595 100.5 67.2787C100.5 54.8837 93.7441 44.1078 83.7499 38.3011V11.4453ZM111.665 61.4167H128.415V72.5834H111.665V61.4167ZM96.2564 104.463L106.251 114.513L114.123 106.641L104.073 96.6464L96.2564 104.463Z" fill="#4E0E03"/>
</svg>
