<svg width="128" height="128" viewBox="0 0 128 128" fill="none" xmlns="http://www.w3.org/2000/svg">
<path fill-rule="evenodd" clip-rule="evenodd" d="M69.3325 16C42.8258 16 21.3325 37.4933 21.3325 64H5.33252L26.6658 85.28L47.9992 64H31.9992C31.9992 43.36 48.6925 26.6667 69.3325 26.6667C89.9725 26.6667 106.666 43.36 106.666 64C106.666 84.64 89.9725 101.333 69.3325 101.333C59.0392 101.333 49.7058 97.12 42.9858 90.3467L35.4125 97.92C44.1058 106.613 56.0525 112 69.3325 112C95.8392 112 117.332 90.5067 117.332 64C117.332 37.4933 95.8392 16 69.3325 16ZM64.0001 42.6671V69.3338L86.6667 82.7738L90.7734 75.9471L72.0001 64.8005V42.6671H64.0001Z" fill="#4E0E03"/>
</svg>
