<svg width="977" height="111" viewBox="0 0 977 111" fill="none" xmlns="http://www.w3.org/2000/svg">
<g opacity="0.5" filter="url(#filter0_f)">
<path d="M4 5.19999V4.19999H2.62375L3.04892 5.50893L4 5.19999ZM39.28 5.19999L40.2392 4.91736L40.0279 4.19999H39.28V5.19999ZM53.536 53.584L52.5768 53.8666L53.4758 56.9179L54.4844 53.9011L53.536 53.584ZM69.808 4.912V3.912H69.0879L68.8596 4.59493L69.808 4.912ZM98.896 4.912L99.8444 4.59493L99.6161 3.912H98.896V4.912ZM115.168 53.584L114.22 53.9011L115.228 56.9179L116.127 53.8666L115.168 53.584ZM129.424 5.19999V4.19999H128.676L128.465 4.91736L129.424 5.19999ZM164.128 5.19999L165.079 5.50893L165.504 4.19999H164.128V5.19999ZM131.152 106.72V107.72H131.879L132.103 107.029L131.152 106.72ZM101.776 106.72L100.833 107.053L101.069 107.72H101.776V106.72ZM84.064 56.608L85.0068 56.2748L84.064 53.6072L83.1212 56.2748L84.064 56.608ZM66.352 106.72V107.72H67.0592L67.2948 107.053L66.352 106.72ZM36.976 106.72L36.0249 107.029L36.2494 107.72H36.976V106.72ZM4 6.19999H39.28V4.19999H4V6.19999ZM38.3208 5.48262L52.5768 53.8666L54.4952 53.3014L40.2392 4.91736L38.3208 5.48262ZM54.4844 53.9011L70.7564 5.22907L68.8596 4.59493L52.5876 53.2669L54.4844 53.9011ZM69.808 5.912H98.896V3.912H69.808V5.912ZM97.9476 5.22907L114.22 53.9011L116.116 53.2669L99.8444 4.59493L97.9476 5.22907ZM116.127 53.8666L130.383 5.48262L128.465 4.91736L114.209 53.3014L116.127 53.8666ZM129.424 6.19999H164.128V4.19999H129.424V6.19999ZM163.177 4.89106L130.201 106.411L132.103 107.029L165.079 5.50893L163.177 4.89106ZM131.152 105.72H101.776V107.72H131.152V105.72ZM102.719 106.387L85.0068 56.2748L83.1212 56.9412L100.833 107.053L102.719 106.387ZM83.1212 56.2748L65.4092 106.387L67.2948 107.053L85.0068 56.9412L83.1212 56.2748ZM66.352 105.72H36.976V107.72H66.352V105.72ZM37.9271 106.411L4.95108 4.89106L3.04892 5.50893L36.0249 107.029L37.9271 106.411ZM169.932 5.19999V4.19999H168.932V5.19999H169.932ZM203.628 5.19999H204.628V4.19999H203.628V5.19999ZM203.628 40.768H202.628V41.768H203.628V40.768ZM234.444 40.768V41.768H235.444V40.768H234.444ZM234.444 5.19999V4.19999H233.444V5.19999H234.444ZM268.14 5.19999H269.14V4.19999H268.14V5.19999ZM268.14 106V107H269.14V106H268.14ZM234.444 106H233.444V107H234.444V106ZM234.444 69.856H235.444V68.856H234.444V69.856ZM203.628 69.856V68.856H202.628V69.856H203.628ZM203.628 106V107H204.628V106H203.628ZM169.932 106H168.932V107H169.932V106ZM169.932 6.19999H203.628V4.19999H169.932V6.19999ZM202.628 5.19999V40.768H204.628V5.19999H202.628ZM203.628 41.768H234.444V39.768H203.628V41.768ZM235.444 40.768V5.19999H233.444V40.768H235.444ZM234.444 6.19999H268.14V4.19999H234.444V6.19999ZM267.14 5.19999V106H269.14V5.19999H267.14ZM268.14 105H234.444V107H268.14V105ZM235.444 106V69.856H233.444V106H235.444ZM234.444 68.856H203.628V70.856H234.444V68.856ZM202.628 69.856V106H204.628V69.856H202.628ZM203.628 105H169.932V107H203.628V105ZM170.932 106V5.19999H168.932V106H170.932ZM309.571 70.288H310.571V70.0174L310.435 69.7837L309.571 70.288ZM271.555 5.19999V4.19999H269.813L270.692 5.70434L271.555 5.19999ZM309.283 5.19999L310.17 4.73743L309.89 4.19999H309.283V5.19999ZM326.563 38.32L325.677 38.7826L326.56 40.4748L327.448 38.7856L326.563 38.32ZM343.987 5.19999V4.19999H343.384L343.102 4.73441L343.987 5.19999ZM381.283 5.19999L382.145 5.70685L383.031 4.19999H381.283V5.19999ZM343.267 69.856L342.405 69.3491L342.267 69.5838V69.856H343.267ZM343.267 106V107H344.267V106H343.267ZM309.571 106H308.571V107H309.571V106ZM310.435 69.7837L272.419 4.69565L270.692 5.70434L308.708 70.7923L310.435 69.7837ZM271.555 6.19999H309.283V4.19999H271.555V6.19999ZM308.397 5.66256L325.677 38.7826L327.45 37.8574L310.17 4.73743L308.397 5.66256ZM327.448 38.7856L344.872 5.66558L343.102 4.73441L325.678 37.8544L327.448 38.7856ZM343.987 6.19999H381.283V4.19999H343.987V6.19999ZM380.421 4.69314L342.405 69.3491L344.129 70.3628L382.145 5.70685L380.421 4.69314ZM342.267 69.856V106H344.267V69.856H342.267ZM343.267 105H309.571V107H343.267V105ZM310.571 106V70.288H308.571V106H310.571ZM428.267 5.19999V4.19999H427.267V5.19999H428.267ZM461.963 5.19999H462.963V4.19999H461.963V5.19999ZM461.963 106V107H462.963V106H461.963ZM428.267 106H427.267V107H428.267V106ZM428.267 6.19999H461.963V4.19999H428.267V6.19999ZM460.963 5.19999V106H462.963V5.19999H460.963ZM461.963 105H428.267V107H461.963V105ZM429.267 106V5.19999H427.267V106H429.267ZM473.823 5.19999V4.19999H472.823V5.19999H473.823ZM505.359 5.19999L506.137 4.57254L505.837 4.19999H505.359V5.19999ZM541.215 49.696L540.436 50.3235L542.215 52.5307V49.696H541.215ZM541.215 5.19999V4.19999H540.215V5.19999H541.215ZM574.623 5.19999H575.623V4.19999H574.623V5.19999ZM574.623 106V107H575.623V106H574.623ZM544.671 106L543.892 106.627L544.192 107H544.671V106ZM507.231 59.488L508.009 58.861L506.231 56.6509V59.488H507.231ZM507.231 106V107H508.231V106H507.231ZM473.823 106H472.823V107H473.823V106ZM473.823 6.19999H505.359V4.19999H473.823V6.19999ZM504.58 5.82745L540.436 50.3235L541.993 49.0685L506.137 4.57254L504.58 5.82745ZM542.215 49.696V5.19999H540.215V49.696H542.215ZM541.215 6.19999H574.623V4.19999H541.215V6.19999ZM573.623 5.19999V106H575.623V5.19999H573.623ZM574.623 105H544.671V107H574.623V105ZM545.449 105.373L508.009 58.861L506.452 60.115L543.892 106.627L545.449 105.373ZM506.231 59.488V106H508.231V59.488H506.231ZM507.231 105H473.823V107H507.231V105ZM474.823 106V5.19999H472.823V106H474.823ZM578.838 5.19999V4.19999H577.357L577.91 5.57365L578.838 5.19999ZM616.566 5.19999L617.511 4.87297L617.278 4.19999H616.566V5.19999ZM636.15 61.792L635.205 62.119L636.15 64.8498L637.095 62.119L636.15 61.792ZM655.734 5.19999V4.19999H655.022L654.789 4.87297L655.734 5.19999ZM692.886 5.19999L693.813 5.57365L694.367 4.19999H692.886V5.19999ZM651.99 106.72V107.72H652.665L652.917 107.094L651.99 106.72ZM619.734 106.72L618.806 107.094L619.059 107.72H619.734V106.72ZM578.838 6.19999H616.566V4.19999H578.838V6.19999ZM615.621 5.52702L635.205 62.119L637.095 61.465L617.511 4.87297L615.621 5.52702ZM637.095 62.119L656.679 5.52702L654.789 4.87297L635.205 61.465L637.095 62.119ZM655.734 6.19999H692.886V4.19999H655.734V6.19999ZM691.958 4.82634L651.062 106.346L652.917 107.094L693.813 5.57365L691.958 4.82634ZM651.99 105.72H619.734V107.72H651.99V105.72ZM620.661 106.346L579.765 4.82634L577.91 5.57365L618.806 107.094L620.661 106.346ZM696.994 5.19999V4.19999H695.994V5.19999H696.994ZM782.962 5.19999H783.962V4.19999H782.962V5.19999ZM782.962 32.848V33.848H783.962V32.848H782.962ZM730.114 32.848V31.848H729.114V32.848H730.114ZM730.114 43.072H729.114V44.072H730.114V43.072ZM779.362 43.072H780.362V42.072H779.362V43.072ZM779.362 67.408V68.408H780.362V67.408H779.362ZM730.114 67.408V66.408H729.114V67.408H730.114ZM730.114 78.352H729.114V79.352H730.114V78.352ZM783.682 78.352H784.682V77.352H783.682V78.352ZM783.682 106V107H784.682V106H783.682ZM696.994 106H695.994V107H696.994V106ZM696.994 6.19999H782.962V4.19999H696.994V6.19999ZM781.962 5.19999V32.848H783.962V5.19999H781.962ZM782.962 31.848H730.114V33.848H782.962V31.848ZM729.114 32.848V43.072H731.114V32.848H729.114ZM730.114 44.072H779.362V42.072H730.114V44.072ZM778.362 43.072V67.408H780.362V43.072H778.362ZM779.362 66.408H730.114V68.408H779.362V66.408ZM729.114 67.408V78.352H731.114V67.408H729.114ZM730.114 79.352H783.682V77.352H730.114V79.352ZM782.682 78.352V106H784.682V78.352H782.682ZM783.682 105H696.994V107H783.682V105ZM697.994 106V5.19999H695.994V106H697.994ZM807.304 103.696L806.994 104.647L807.006 104.651L807.304 103.696ZM784.408 90.88L783.642 90.2373L783.014 90.9853L783.747 91.6305L784.408 90.88ZM802.408 69.424L803.019 68.6324L802.259 68.0457L801.642 68.7813L802.408 69.424ZM819.688 78.496L819.977 77.5386L819.977 77.5386L819.688 78.496ZM844.312 80.08L844.808 80.9482L844.808 80.9482L844.312 80.08ZM843.304 73.024L842.857 73.9184L842.865 73.9227L842.874 73.9269L843.304 73.024ZM832.36 70L832.161 70.98L832.167 70.9812L832.36 70ZM816.088 65.968L815.799 66.9253L815.804 66.9268L816.088 65.968ZM802.552 60.064L802.022 60.912L802.031 60.9178L802.552 60.064ZM793.336 51.136L792.49 51.67L792.497 51.6802L793.336 51.136ZM792.616 23.92L791.709 23.4983L791.705 23.507L791.701 23.5158L792.616 23.92ZM800.824 13.12L800.18 12.355L800.17 12.3636L800.824 13.12ZM814.216 5.91999L813.91 4.96795L813.905 4.9696L814.216 5.91999ZM858.28 6.784L857.979 7.73759L857.982 7.7387L858.28 6.784ZM878.152 17.152L878.963 17.7371L879.524 16.9593L878.77 16.3661L878.152 17.152ZM861.736 39.904L861.152 40.7155L861.962 41.2993L862.547 40.4891L861.736 39.904ZM846.472 32.416L846.177 33.3714L846.187 33.3746L846.197 33.3775L846.472 32.416ZM825.88 31.12L825.356 30.2683L825.34 30.2779L825.325 30.2879L825.88 31.12ZM824.728 36.304L825.56 35.7493L825.56 35.7493L824.728 36.304ZM826.744 38.032L826.23 38.8895L826.278 38.9188L826.33 38.9424L826.744 38.032ZM837.544 40.912L837.72 39.9277L837.72 39.9276L837.544 40.912ZM855.112 45.088L854.817 46.0434L854.817 46.0434L855.112 45.088ZM868.648 51.424L868.079 52.2462L868.091 52.2545L868.103 52.2624L868.648 51.424ZM877.432 60.496L876.562 60.9896L876.567 60.9984L876.572 61.0071L877.432 60.496ZM877.432 88L878.326 88.4472L878.326 88.4472L877.432 88ZM868.504 98.8L869.104 99.6L869.11 99.5953L869.117 99.5904L868.504 98.8ZM854.392 105.568L854.662 106.531L854.673 106.528L854.392 105.568ZM836.104 106.872C825.923 106.872 816.424 105.492 807.602 102.741L807.006 104.651C816.04 107.468 825.741 108.872 836.104 108.872V106.872ZM807.614 102.745C798.9 99.9039 791.39 95.6963 785.069 90.1295L783.747 91.6305C790.29 97.3917 798.044 101.728 806.994 104.647L807.614 102.745ZM785.174 91.5227L803.174 70.0667L801.642 68.7813L783.642 90.2373L785.174 91.5227ZM801.797 70.2156C807.356 74.507 813.224 77.5911 819.399 79.4534L819.977 77.5386C814.056 75.7529 808.404 72.789 803.019 68.6324L801.797 70.2156ZM819.399 79.4534C825.535 81.3039 831.632 82.232 837.688 82.232V80.232C831.84 80.232 825.937 79.3361 819.977 77.5386L819.399 79.4534ZM837.688 82.232C840.794 82.232 843.226 81.8525 844.808 80.9482L843.816 79.2118C842.71 79.8435 840.726 80.232 837.688 80.232V82.232ZM844.808 80.9482C846.407 80.0346 847.328 78.6757 847.328 76.912H845.328C845.328 77.8363 844.905 78.5894 843.816 79.2118L844.808 80.9482ZM847.328 76.912V76.624H845.328V76.912H847.328ZM847.328 76.624C847.328 74.6082 845.885 73.1456 843.734 72.1211L842.874 73.9269C844.755 74.8224 845.328 75.7598 845.328 76.624H847.328ZM843.751 72.1296C841.695 71.1015 837.922 70.0734 832.553 69.0188L832.167 70.9812C837.55 72.0386 841.073 73.0265 842.857 73.9184L843.751 72.1296ZM832.559 69.0201C826.922 67.8735 821.526 66.5364 816.372 65.0092L815.804 66.9268C821.018 68.4716 826.47 69.8225 832.161 70.9799L832.559 69.0201ZM816.377 65.0107C811.358 63.4956 806.926 61.5599 803.073 59.2102L802.031 60.9178C806.05 63.3681 810.642 65.3684 815.799 66.9253L816.377 65.0107ZM803.082 59.216C799.357 56.888 796.394 54.0128 794.175 50.5918L792.497 51.6802C794.886 55.3632 798.067 58.44 802.022 60.912L803.082 59.216ZM794.181 50.602C792.001 47.149 790.88 42.8333 790.88 37.6H788.88C788.88 43.1186 790.063 47.827 792.491 51.67L794.181 50.602ZM790.88 37.6V37.312H788.88V37.6H790.88ZM790.88 37.312C790.88 32.6422 791.766 28.3169 793.531 24.3242L791.701 23.5158C789.818 27.7791 788.88 32.3818 788.88 37.312H790.88ZM793.523 24.3417C795.381 20.3459 798.03 16.8589 801.478 13.8764L800.17 12.3636C796.514 15.5251 793.691 19.238 791.709 23.4983L793.523 24.3417ZM801.468 13.8849C805.003 10.908 809.349 8.56498 814.527 6.87039L813.905 4.9696C808.523 6.731 803.941 9.18802 800.18 12.3551L801.468 13.8849ZM814.522 6.87202C819.78 5.182 825.817 4.32799 832.648 4.32799V2.32799C825.655 2.32799 819.404 3.20198 813.91 4.96796L814.522 6.87202ZM832.648 4.32799C842.365 4.32799 850.803 5.47155 857.979 7.73758L858.581 5.83042C851.165 3.48844 842.515 2.32799 832.648 2.32799V4.32799ZM857.982 7.7387C865.263 10.0079 871.777 13.4082 877.534 17.9379L878.77 16.3661C872.815 11.6798 866.081 8.16812 858.578 5.8293L857.982 7.7387ZM877.341 16.5669L860.925 39.3189L862.547 40.4891L878.963 17.7371L877.341 16.5669ZM862.32 39.0925C857.432 35.5729 852.24 33.024 846.747 31.4545L846.197 33.3775C851.456 34.88 856.44 37.3231 861.152 40.7155L862.32 39.0925ZM846.767 31.4606C841.408 29.8041 836.316 28.968 831.496 28.968V30.968C836.084 30.968 840.976 31.7639 846.177 33.3714L846.767 31.4606ZM831.496 28.968C828.93 28.968 826.837 29.3569 825.356 30.2683L826.404 31.9717C827.419 31.3471 829.07 30.968 831.496 30.968V28.968ZM825.325 30.2879C823.931 31.2175 823.152 32.5208 823.152 34.144H825.152C825.152 33.2712 825.525 32.5585 826.435 31.952L825.325 30.2879ZM823.152 34.144V34.432H825.152V34.144H823.152ZM823.152 34.432C823.152 35.3076 823.406 36.1237 823.896 36.8587L825.56 35.7493C825.282 35.3323 825.152 34.9004 825.152 34.432H823.152ZM823.896 36.8587C824.397 37.611 825.212 38.2789 826.23 38.8895L827.258 37.1745C826.356 36.6331 825.827 36.149 825.56 35.7493L823.896 36.8587ZM826.33 38.9424C827.452 39.4521 828.898 39.9482 830.652 40.4355L831.188 38.5085C829.486 38.0357 828.148 37.5719 827.158 37.1216L826.33 38.9424ZM830.652 40.4355C832.422 40.9271 834.663 41.4134 837.368 41.8964L837.72 39.9276C835.049 39.4506 832.874 38.9769 831.188 38.5085L830.652 40.4355ZM837.368 41.8963C843.767 43.0424 849.582 44.4254 854.817 46.0434L855.407 44.1326C850.082 42.4866 844.186 41.0856 837.72 39.9277L837.368 41.8963ZM854.817 46.0434C860.019 47.6515 864.434 49.7232 868.079 52.2462L869.217 50.6018C865.374 47.9408 860.765 45.7885 855.407 44.1326L854.817 46.0434ZM868.103 52.2624C871.825 54.6819 874.635 57.5931 876.562 60.9896L878.302 60.0024C876.197 56.2949 873.151 53.1581 869.193 50.5856L868.103 52.2624ZM876.572 61.0071C878.573 64.3724 879.6 68.5065 879.6 73.456H881.6C881.6 68.2295 880.515 63.7236 878.292 59.9849L876.572 61.0071ZM879.6 73.456V73.744H881.6V73.456H879.6ZM879.6 73.744C879.6 78.8873 878.572 83.4833 876.538 87.5528L878.326 88.4472C880.516 84.0687 881.6 79.1607 881.6 73.744H879.6ZM876.538 87.5528C874.495 91.6388 871.616 95.1227 867.891 98.0096L869.117 99.5904C873.072 96.5253 876.145 92.8092 878.326 88.4472L876.538 87.5528ZM867.904 98C864.178 100.795 859.587 103.003 854.111 104.608L854.673 106.528C860.333 104.869 865.15 102.565 869.104 99.6L867.904 98ZM854.122 104.605C848.752 106.113 842.749 106.872 836.104 106.872V108.872C842.899 108.872 849.088 108.095 854.662 106.531L854.122 104.605ZM910.505 33.712H911.505V32.712H910.505V33.712ZM880.841 33.712H879.841V34.712H880.841V33.712ZM880.841 5.19999V4.19999H879.841V5.19999H880.841ZM973.865 5.19999H974.865V4.19999H973.865V5.19999ZM973.865 33.712V34.712H974.865V33.712H973.865ZM944.201 33.712V32.712H943.201V33.712H944.201ZM944.201 106V107H945.201V106H944.201ZM910.505 106H909.505V107H910.505V106ZM910.505 32.712H880.841V34.712H910.505V32.712ZM881.841 33.712V5.19999H879.841V33.712H881.841ZM880.841 6.19999H973.865V4.19999H880.841V6.19999ZM972.865 5.19999V33.712H974.865V5.19999H972.865ZM973.865 32.712H944.201V34.712H973.865V32.712ZM943.201 33.712V106H945.201V33.712H943.201ZM944.201 105H910.505V107H944.201V105ZM911.505 106V33.712H909.505V106H911.505Z" fill="url(#paint0_linear)"/>
</g>
<defs>
<filter id="filter0_f" x="0.623535" y="0.327881" width="976.241" height="110.544" filterUnits="userSpaceOnUse" color-interpolation-filters="sRGB">
<feFlood flood-opacity="0" result="BackgroundImageFix"/>
<feBlend mode="normal" in="SourceGraphic" in2="BackgroundImageFix" result="shape"/>
<feGaussianBlur stdDeviation="1" result="effect1_foregroundBlur"/>
</filter>
<linearGradient id="paint0_linear" x1="490" y1="-9" x2="490" y2="135" gradientUnits="userSpaceOnUse">
<stop stop-color="#4E0E03" stop-opacity="0.7"/>
<stop offset="1" stop-color="#DF9C6A" stop-opacity="0.79"/>
</linearGradient>
</defs>
</svg>
