<svg width="33" height="33" viewBox="0 0 33 33" fill="none" xmlns="http://www.w3.org/2000/svg">
<path fill-rule="evenodd" clip-rule="evenodd" d="M16.9201 3.20947C11.762 3.20947 7.59033 7.38237 7.59033 12.5418C7.59033 19.5411 16.9201 29.8733 16.9201 29.8733C16.9201 29.8733 26.2498 19.5411 26.2498 12.5418C26.2498 7.38237 22.0781 3.20947 16.9201 3.20947ZM10.2553 12.5404C10.2553 8.86075 13.2408 5.8744 16.9194 5.8744C20.598 5.8744 23.5835 8.86075 23.5835 12.5404C23.5835 16.38 19.745 22.126 16.9194 25.7123C14.1471 22.1527 10.2553 16.34 10.2553 12.5404Z" fill="#4E0E03"/>
<path fill-rule="evenodd" clip-rule="evenodd" d="M16.9199 15.8747C18.7602 15.8747 20.252 14.3823 20.252 12.5413C20.252 10.7004 18.7602 9.20801 16.9199 9.20801C15.0797 9.20801 13.5879 10.7004 13.5879 12.5413C13.5879 14.3823 15.0797 15.8747 16.9199 15.8747Z" fill="#4E0E03"/>
</svg>
