<svg width="31" height="31" viewBox="0 0 31 31" fill="none" xmlns="http://www.w3.org/2000/svg">
<path fill-rule="evenodd" clip-rule="evenodd" d="M9.09795 6.78516C9.17295 7.89766 9.36045 8.98516 9.66045 10.0227L8.16045 11.5227C7.64795 10.0227 7.32295 8.43516 7.21045 6.78516H9.09795ZM21.4174 21.8078C22.4795 22.1078 23.5665 22.2953 24.6661 22.3703V24.2328C23.0167 24.1203 21.4299 23.7953 19.9179 23.2953L21.4174 21.8078ZM10.2962 4.28516H5.92286C5.23562 4.28516 4.67334 4.8476 4.67334 5.53502C4.67334 17.2713 14.1822 26.7828 25.9151 26.7828C26.6024 26.7828 27.1646 26.2203 27.1646 25.5329V21.1709C27.1646 20.4834 26.6024 19.921 25.9151 19.921C24.3657 19.921 22.8538 19.671 21.4544 19.2086C21.3294 19.1586 21.192 19.1461 21.067 19.1461C20.7421 19.1461 20.4297 19.2711 20.1798 19.5086L17.4309 22.2583C13.8948 20.446 10.9959 17.5588 9.19659 14.0216L11.9455 11.2719C12.2954 10.922 12.3954 10.4345 12.2579 9.99705C11.7956 8.5972 11.5457 7.09736 11.5457 5.53502C11.5457 4.8476 10.9834 4.28516 10.2962 4.28516Z" fill="#4E0E03"/>
</svg>
