<svg width="249" height="299" viewBox="0 0 249 299" fill="none" xmlns="http://www.w3.org/2000/svg">
<g opacity="0.5">
<mask id="path-1-inside-1" fill="white">
<path fill-rule="evenodd" clip-rule="evenodd" d="M124.886 0.75L124.453 0L124.02 0.75L14.7303 190.045L14.2972 190.795H15.1633H42.4856H62.0599L0.577351 297.285L0 298.285H1.1547H247.523H248.678L248.1 297.285L186.618 190.795H206.419H233.742H234.608L234.175 190.045L124.886 0.75ZM186.041 189.795H206.419H232.876L124.453 2L16.0293 189.795H42.4856H62.6373L123.762 83.9241L124.339 82.9241L124.916 83.9241L186.041 189.795ZM1.73205 297.285L124.339 84.9242L246.946 297.285H1.73205Z"/>
</mask>
<path d="M124.453 0L125.319 -0.500001L124.453 -2L123.586 -0.500001L124.453 0ZM124.886 0.75L125.752 0.25L125.752 0.249999L124.886 0.75ZM124.02 0.75L123.153 0.249999L123.153 0.25L124.02 0.75ZM14.7303 190.045L13.8642 189.545L13.8642 189.545L14.7303 190.045ZM14.2972 190.795L13.4312 190.295L12.5652 191.795H14.2972V190.795ZM62.0599 190.795L62.926 191.295L63.792 189.795H62.0599V190.795ZM0.577351 297.285L1.44338 297.785L1.44338 297.785L0.577351 297.285ZM0 298.285L-0.866025 297.785L-1.73205 299.285H0V298.285ZM248.678 298.285V299.285H250.41L249.544 297.785L248.678 298.285ZM248.1 297.285L247.234 297.785L247.234 297.785L248.1 297.285ZM186.618 190.795V189.795H184.886L185.752 191.295L186.618 190.795ZM234.608 190.795V191.795H236.34L235.474 190.295L234.608 190.795ZM234.175 190.045L233.309 190.545L233.309 190.545L234.175 190.045ZM186.041 189.795L185.175 190.295L185.463 190.795H186.041V189.795ZM232.876 189.795V190.795H234.608L233.742 189.295L232.876 189.795ZM124.453 2L125.319 1.5L124.453 2.00223e-06L123.586 1.5L124.453 2ZM16.0293 189.795L15.1633 189.295L14.2972 190.795H16.0293V189.795ZM62.6373 189.795V190.795H63.2146L63.5033 190.295L62.6373 189.795ZM123.762 83.9241L124.628 84.4241L124.628 84.4241L123.762 83.9241ZM124.339 82.9241L125.205 82.4242L124.339 80.9241L123.473 82.4242L124.339 82.9241ZM124.916 83.9241L124.05 84.4241L124.05 84.4241L124.916 83.9241ZM124.339 84.9242L125.205 84.4242L124.339 82.9242L123.473 84.4242L124.339 84.9242ZM1.73205 297.285L0.866026 296.785L9.57035e-07 298.285H1.73205V297.285ZM246.946 297.285V298.285H248.678L247.812 296.785L246.946 297.285ZM123.586 0.500001L124.02 1.25L125.752 0.249999L125.319 -0.500001L123.586 0.500001ZM124.886 1.25L125.319 0.500001L123.586 -0.500001L123.153 0.249999L124.886 1.25ZM15.5963 190.545L124.886 1.25L123.153 0.25L13.8642 189.545L15.5963 190.545ZM15.1633 191.295L15.5963 190.545L13.8642 189.545L13.4312 190.295L15.1633 191.295ZM15.1633 189.795H14.2972V191.795H15.1633V189.795ZM42.4856 189.795H15.1633V191.795H42.4856V189.795ZM62.0599 189.795H42.4856V191.795H62.0599V189.795ZM61.1939 190.295L-0.288675 296.785L1.44338 297.785L62.926 191.295L61.1939 190.295ZM-0.288675 296.785L-0.866025 297.785L0.866025 298.785L1.44338 297.785L-0.288675 296.785ZM0 299.285H1.1547V297.285H0V299.285ZM1.1547 299.285H247.523V297.285H1.1547V299.285ZM247.523 299.285H248.678V297.285H247.523V299.285ZM249.544 297.785L248.967 296.785L247.234 297.785L247.812 298.785L249.544 297.785ZM248.967 296.785L187.484 190.295L185.752 191.295L247.234 297.785L248.967 296.785ZM206.419 189.795H186.618V191.795H206.419V189.795ZM233.742 189.795H206.419V191.795H233.742V189.795ZM234.608 189.795H233.742V191.795H234.608V189.795ZM233.309 190.545L233.742 191.295L235.474 190.295L235.041 189.545L233.309 190.545ZM124.02 1.25L233.309 190.545L235.041 189.545L125.752 0.25L124.02 1.25ZM186.041 190.795H206.419V188.795H186.041V190.795ZM206.419 190.795H232.876V188.795H206.419V190.795ZM233.742 189.295L125.319 1.5L123.586 2.5L232.01 190.295L233.742 189.295ZM123.586 1.5L15.1633 189.295L16.8953 190.295L125.319 2.5L123.586 1.5ZM16.0293 190.795H42.4856V188.795H16.0293V190.795ZM42.4856 190.795H62.6373V188.795H42.4856V190.795ZM122.896 83.4241L61.7713 189.295L63.5033 190.295L124.628 84.4241L122.896 83.4241ZM123.473 82.4242L122.896 83.4242L124.628 84.4241L125.205 83.4241L123.473 82.4242ZM125.782 83.4242L125.205 82.4242L123.473 83.4241L124.05 84.4241L125.782 83.4242ZM186.907 189.295L125.782 83.4241L124.05 84.4241L185.175 190.295L186.907 189.295ZM123.473 84.4242L0.866026 296.785L2.59808 297.785L125.205 85.4242L123.473 84.4242ZM247.812 296.785L125.205 84.4242L123.473 85.4242L246.08 297.785L247.812 296.785ZM1.73205 298.285H246.946V296.285H1.73205V298.285Z" fill="url(#paint0_linear)" mask="url(#path-1-inside-1)"/>
</g>
<defs>
<linearGradient id="paint0_linear" x1="124.339" y1="0" x2="124.339" y2="298.285" gradientUnits="userSpaceOnUse">
<stop stop-color="#4E0E03" stop-opacity="0.7"/>
<stop offset="1" stop-color="#DF9C6A" stop-opacity="0.79"/>
</linearGradient>
</defs>
</svg>
